<svg xmlns="http://www.w3.org/2000/svg" viewBox="0 0 80.26 110.68"><defs><style>.cls-1{fill:#ecac91;}.cls-2{fill:#524c51;}.cls-3{fill:#ae705d;}.cls-4{fill:#e7267a;opacity:0.31;}.cls-5{fill:#010101;}.cls-6{fill:#fff;}</style></defs><title>Element 3</title><g id="Ebene_2" data-name="Ebene 2"><g id="Ebene_3" data-name="Ebene 3"><path class="cls-1" d="M10.71,99.2C7.6,93.46,8.21,94.13,7,86.29c-.17-1.13.76-9.64.59-10.76-.38-2.48-3.87-6.06-4.31-8.42-5.15-27.86,13.56-50,41.09-50.68,9.84-.26,14.22,1.27,20.16,7.83,4,4.43,10.73,12.54,12.65,19.43,1.58,5.7-1.5,12.18-1.5,19.31,0,3.83,4.26,8.3,4.58,12.93.35,5.14-5.9,2.22-6.15,7s3.91,4.54,2,7.63c-.37.6.69,1.51.39,2.94-.52,2.45-2.35,6-2.87,9.11-.64,3.88-6.79,5-7.89,6-1.92,1.59,1.41-1.13-.78,0-1.5.78-7.22,1.38-8.81,2-2.56.93-21.81-3.52-24.46-3.52"/><path class="cls-2" d="M3.27,67.11s.79-17.41,8.61-15.85,6.26,5.87,6.26,5.87L51,39.13s-1.37-16.24,13.5-14.87c0,0,11.93-15.85,2.93-20.74s-9-2.15-11-3.52c0,0,2.94,1.57,2.74,4.3S21.47,5.09,15.4,17.61-6.9,37.57,3.27,67.11Z"/><rect class="cls-3" x="66.82" y="39.32" width="8.56" height="0.99" rx="0.19"/><rect class="cls-3" x="68.26" y="41.38" width="8.56" height="0.99" rx="0.19"/><circle class="cls-4" cx="59.62" cy="85.31" r="8.11"/><ellipse class="cls-5" cx="75.14" cy="58.31" rx="0.92" ry="2.32"/><rect class="cls-3" x="8.17" y="58.38" width="5.08" height="10.82" rx="0.97" transform="translate(21.42 127.57) rotate(180)"/><path class="cls-5" d="M76.06,90.59S69.21,90.4,65.89,90c0,0,3.52,7.43,8.21,8.21C74.1,98.22,78,95.68,76.06,90.59Z"/><rect class="cls-6" x="68.82" y="90.45" width="8.02" height="2.09" transform="translate(145.66 183) rotate(180)"/><rect class="cls-3" x="67.06" y="56.74" width="6.81" height="0.89" rx="0.17"/><rect class="cls-3" x="67.27" y="58.41" width="6.81" height="0.89" rx="0.17"/><path class="cls-3" d="M62.93,87.75s.06-1.63-1.21-1.52c0,0,2.43-2.11,2.6.25Z"/></g></g></svg>