<svg xmlns="http://www.w3.org/2000/svg" viewBox="0 0 228.64 312.94"><defs><style>.cls-1{fill:#ecac91;}.cls-2{fill:#ae705d;}.cls-3{fill:#010101;}.cls-4{fill:#524c51;}.cls-5{fill:#c1292e;}.cls-6{fill:#fff;}.cls-7{fill:#e7267a;opacity:0.31;}</style></defs><title>Element 1</title><g id="Ebene_2" data-name="Ebene 2"><g id="Ebene_3" data-name="Ebene 3"><path class="cls-1" d="M114.71,312.94c-35.13,0-72.29-17.54-91.06-52.24-11.86-21.91-12.71-53.76-12.71-82.59,0-74.46,46.46-134.82,103.77-134.82s103.76,60.36,103.76,134.82c0,32.35-2.32,69.24-16.94,92.47-19,30.25-54.41,42.36-86.82,42.36"/><rect class="cls-2" x="38.88" y="165.92" width="22.34" height="2.58" rx="1.29"/><rect class="cls-2" x="168.26" y="166.96" width="22.34" height="2.58" rx="1.29"/><rect class="cls-2" x="80.12" y="102.58" width="73.41" height="7.06" rx="3.53"/><rect class="cls-2" x="167.98" y="161.98" width="22.34" height="2.58" rx="1.29"/><rect class="cls-2" x="38.24" y="161.29" width="22.34" height="2.58" rx="1.29"/><ellipse class="cls-3" cx="159.63" cy="170.77" rx="12.45" ry="8.05"/><path class="cls-4" d="M163.41,5.17c36.71,14.12,63.53,40.94,64.94,57.88s-2.82,63.53-4.23,86.12-8.47,24-8.47,24-9.89-83.29-36.71-96S139.41,80,116.82,81.41s-72-7.06-72-7.06-7.06-48,28.24-56.47S126.71-8.95,163.41,5.17"/><path class="cls-4" d="M44.82,74.35s16.94-2.83,21.18,0S27.88,89.88,22.24,118.11s-9.89,43.77-9.89,43.77-8.47-60.71,0-69.18S27.88,71.52,44.82,74.35Z"/><rect class="cls-2" x="80.82" y="115.99" width="73.41" height="7.06" rx="3.53"/><path class="cls-3" d="M65.18,238.11H165.29S118.57,309.32,65.18,238.11Z"/><rect class="cls-1" y="173.52" width="18" height="58.24" rx="9"/><path class="cls-5" d="M88.12,260.37s23.47-14.6,53.64,1.46c0,0-11.37,15.09-42.22,5.34C95.39,265.86,93.1,262.62,88.12,260.37Z"/><ellipse class="cls-2" cx="106.94" cy="209.88" rx="4.41" ry="3.88"/><ellipse class="cls-2" cx="125.29" cy="209.52" rx="4.41" ry="3.88"/><rect class="cls-2" x="6.24" y="187.76" width="6.12" height="28.24" rx="3.06"/><rect class="cls-6" x="76.82" y="238.11" width="76.71" height="8.47"/><circle class="cls-7" cx="46.24" cy="216.94" r="21.18"/><circle class="cls-7" cx="185.29" cy="222.58" r="21.18"/><path class="cls-2" d="M60,232.11s-3.88,1.77-2.12,4.59c0,0-7.76-3.18-2.47-6.35Z"/><path class="cls-2" d="M170.77,236.68s.17-4.26-3.14-4c0,0,6.33-5.51,6.78.65Z"/><ellipse class="cls-3" cx="70.97" cy="167.31" rx="12.45" ry="8.05"/></g></g></svg>