<svg xmlns="http://www.w3.org/2000/svg" viewBox="0 0 297.49 478.84"><defs><style>.cls-1{fill:#ff008c;}.cls-2{fill:#e7b499;}.cls-3{fill:#020202;}.cls-4{fill:#563a27;}.cls-5{fill:#bc8080;}.cls-6{fill:#ae705d;}.cls-7{fill:none;stroke:#000;stroke-miterlimit:10;stroke-width:3px;}</style></defs><title>Element 4</title><g id="Ebene_2" data-name="Ebene 2"><g id="Ebene_2-2" data-name="Ebene 2"><path class="cls-1" d="M210.36,47.88S150.23-64.46,72.49,55-1.81,223.54,35.72,308.56s11.49,153.19-12.25,154S2.79,442.6,2.79,442.6s-19.92,55.53,46.72,29.11,73.92-56.68,72-88.85.77-94.22.77-94.22-44.43-88.47-34.47-131S104.28,31.92,210.36,47.88Z"/><path class="cls-2" d="M283.51,196.73c0,13.5-4.59,25.3-6.13,39.06-1.11,10-11.19,30.13-13.78,39.07-2.38,8.2-19.54,21.43-31,25.65-13.51,5-39.62,14.9-49.78,11.88-8.06-2.4-48.55-8.36-55.92-12.64-10.09-5.87-27.78-37.13-29.49-43.28-2.21-8-12.13-14.85-13-23.74-1.3-13.14-1.15-40.51-1.15-53.62,0-74.46,42.35-119.62,99.65-119.62S283.51,122.27,283.51,196.73Z"/><path class="cls-3" d="M79.64,179.62s22.47-48.51,25.53-55.66,8.94-30.13,10.21-32.68,100.34-15.06,131.24-.51c0,0,3.83,24.51,9.19,29.11s27.19,40.46,27.7,58.85c0,0-1.91-106.09-73.15-130.85S74.53,98.17,79.64,179.62Z"/><path class="cls-3" d="M183.3,42.77s-58.47-1.53-83.75,47.49-19.91,89.36-19.91,89.36S109,86.17,115.89,83.11,183.3,42.77,183.3,42.77Z"/><path class="cls-3" d="M210.36,47.88S193,18.51,182.79,15.71c0,0,3.06,7.66,7.66,12.76S183,34.09,178.7,32.05s-16.85-4.09-22-2.56a32.84,32.84,0,0,0-8.68,4.09s2.56,0,8.17,2-3.06,7.15-16.34,9.19A50.09,50.09,0,0,0,124.51,50c-6.43,3.4-11.08,7.73-11.68,11.18,0,0,12.25-6.89,18.38-7.15,0,0-32.17,23.75-38.3,32.17-.79,1.1-1.46,2.11-2,3-3.85,6.31-3.07,9.21-3.07,9.21s3.32-8.68,11.74-8.17c0,0-27.7,67.91-16.72,97.28,0,0,10.85-104.94,38.17-113.11S210.36,47.88,210.36,47.88Z"/><circle cx="139.04" cy="176.56" r="12.18"/><circle cx="230.62" cy="174.51" r="12.18"/><path d="M248.12,153.43l-9,.75-10.17,2.47-23.2,5.64A3.08,3.08,0,0,1,202,160h0a3.08,3.08,0,0,1,2.26-3.7l31.13-7.56,11.75-1.94s7.31-1.28,7.71.36l7.56,4.08C262.84,152.9,248.12,153.43,248.12,153.43Z"/><path d="M113.22,155.14l9,.43,10.26,2.11,23.38,4.81a3.08,3.08,0,0,0,3.62-2.39h0a3.08,3.08,0,0,0-2.39-3.62L125.74,150l-11.81-1.52s-7.35-1-7.69.64l-7.41,4.34C98.49,155.14,113.22,155.14,113.22,155.14Z"/><circle class="cls-4" cx="138.02" cy="236.47" r="5.07"/><rect class="cls-5" x="171.3" y="264.9" width="36" height="7.66" rx="3.83"/><ellipse class="cls-6" cx="179.54" cy="216.93" rx="3.54" ry="3.12"/><ellipse class="cls-6" cx="194.28" cy="216.64" rx="3.54" ry="3.12"/><rect class="cls-7" x="91.64" y="164.56" width="81.19" height="36.77" rx="12"/><rect class="cls-7" x="194.79" y="164.56" width="81.19" height="36.77" rx="12"/><rect x="173.6" y="182.94" width="26.04" height="6.13" rx="3.06"/><rect class="cls-2" x="279.49" y="176.04" width="18" height="58.24" rx="9"/><rect class="cls-2" x="68.08" y="188.29" width="18" height="58.24" rx="9"/><rect class="cls-6" x="77.09" y="204.06" width="6.12" height="28.24" rx="3.06"/><rect class="cls-6" x="283.9" y="192.57" width="6.12" height="28.24" rx="3.06"/><circle class="cls-3" cx="77.38" cy="239.62" r="5.07"/><circle class="cls-3" cx="288.49" cy="226.13" r="5.07"/></g></g></svg>