<?xml version="1.0" encoding="utf-8"?>
<!-- Generator: Adobe Illustrator 23.0.6, SVG Export Plug-In . SVG Version: 6.00 Build 0)  -->
<svg version="1.1" id="Ebene_1" xmlns="http://www.w3.org/2000/svg" xmlns:xlink="http://www.w3.org/1999/xlink" x="0px" y="0px"
	 viewBox="0 0 154.4 250.4" style="enable-background:new 0 0 154.4 250.4;" xml:space="preserve">
<style type="text/css">
	.st0{fill:#E7B499;}
	.st1{fill:#010101;}
	.st2{fill:#573B28;}
	.st3{fill:#AE705D;}
	.st4{fill:#020303;}
	.st5{fill:#E72887;}
</style>
<title>Element 2</title>
<g>
	<g id="Ebene_3">
		<path class="st0" d="M64.9,162.7c-4.1,0-24.9,5.3-28.8,3.8c-2.5-0.9-10.1-1.9-12.4-3.1c-3.4-1.7,1.8,2.4-1.2,0
			c-1.7-1.4-11.2-3.2-12.2-9.2c-0.8-4.7-3.6-10.2-4.4-14c-0.5-2.2,1.2-3.6,0.6-4.5c-3-4.8,3.4-4.3,3-11.8C9.1,116.5-0.5,121,0,113
			c0.5-7.1,7.1-14,7.1-19.9c0-11-4.8-21-2.3-29.8c3-10.7,13.3-23.2,19.5-30c9.1-10.1,15.9-12.5,31.1-12.1
			c42.5,1.1,71.3,35.1,63.4,78.1c-0.7,3.6-5.7,3.8-6.3,7.6c-0.3,1.7-15.6,10.3-15.8,12c-1.9,12.1-12.8,30.7-17.6,39.6L64.9,162.7z"
			/>
		<path class="st1" d="M53.7,89.1L53.7,89.1c0,1-0.8,1.8-1.8,1.8h-50c-1,0-1.8-0.8-1.8-1.8l0,0c0-1,0.8-1.8,1.8-1.8h50
			C52.9,87.3,53.7,88.1,53.7,89.1z"/>
		<path class="st1" d="M1.1,87.6L1.1,87.6C1.6,87.6,2,88,2,88.5v21c0,0.5-0.4,0.9-0.9,0.9h0c-0.5,0-0.9-0.4-0.9-0.9v-21
			C0.2,88,0.6,87.6,1.1,87.6z"/>
		<ellipse class="st1" cx="8.2" cy="96.3" rx="2.1" ry="4.4"/>
		<path class="st1" d="M18.2,84.3l-2.1-2.5c-0.2-0.8-1.9-0.7-1.9-0.7l-2.7,0.2L4.4,83c-0.4,0.1-0.5,0.8-0.3,1.7l0,0
			c0.2,0.8,0.6,1.4,1,1.4l5.3-1.3l2.3-0.6l2.1,0.2C14.8,84.4,18.4,85.2,18.2,84.3z"/>
		<circle class="st2" cx="17.6" cy="123.3" r="3"/>
		<path class="st3" d="M98.6,97.9V111c0,1-0.8,1.8-1.8,1.8h-3c-1,0-1.8-0.8-1.8-1.8V97.9c0-1,0.8-1.8,1.8-1.8h3
			C97.8,96.1,98.6,96.9,98.6,97.9z"/>
		<circle class="st4" cx="94.3" cy="111.6" r="3"/>
	</g>
	<g id="Ebene_2-2">
		<path d="M120.8,70.2c23,63.6-34.2,77.1-35.7,76.6s11.2-27.1,11.2-27.1s14-12.5,7.7-25s-17.9,0.5-17.9,0.5S50.6,65.6,50.9,60
			S14.6,45.7,14.6,45.7C28.1,7.7,97.8,6.6,120.8,70.2z"/>
		<path class="st5" d="M93.2,48.3h9.2c17.1,1.3,14,20.4,15.8,27.6s-20.9,60.8-24,84.3s13.3,46.5,15.8,72.5s31.1,15.8,31.1,15.8
			c-12.3-3.6-31.2-21.9,2-103.7s-16.6-130.3-38.8-142S61.1,19.7,61.1,19.7C64.4,27.6,93.2,48.3,93.2,48.3z"/>
		<path d="M59.5,33.5c0,0-3.4-16.4,16.8-27.6s30.9-0.9,38.3,3.6s10.2,22.9,13.3,26c3.1,3.1,6.6,18.9,6.6,18.9
			c-2.6-2.6-4.8-5.5-6.6-8.7c-3.8-6.1-7.4,1.5-7.2,2.6c0.3,1-4.1,12.3-4.1,12.3C115.4,49,93.2,48.3,93.2,48.3L59.5,33.5z"/>
	</g>
</g>
</svg>
