<?xml version="1.0" encoding="utf-8"?>
<!-- Generator: Adobe Illustrator 24.0.0, SVG Export Plug-In . SVG Version: 6.00 Build 0)  -->
<svg version="1.1" id="Ebene_2" xmlns="http://www.w3.org/2000/svg" xmlns:xlink="http://www.w3.org/1999/xlink" x="0px" y="0px"
	 viewBox="0 0 595.28 841.89" style="enable-background:new 0 0 595.28 841.89;" xml:space="preserve">
<style type="text/css">
	.st0{fill:#27180F;}
	.st1{fill:#F1D678;}
</style>
<path class="st0" d="M283.85,242.43c0,0-47.49,73.02-54.64,78.13s-5.36,23.23,6.64,33.19c12,9.96-34.72,58.21-50.04,66.38
	c-15.32,8.17-25.53,26.04-9.19,38.3s14.04,20.17-33.19,67.91c-47.23,47.74,2.3,80.94,16.85,80.68c14.55-0.26,50.55,2.04,66.89,9.7
	c16.34,7.66,30.89,8.94,30.64,21.45c-0.26,12.51-0.26,12.51-0.26,12.51l133.53,0.77c0,0-9.96-39.57,26.55-42.38
	c36.51-2.81,73.79-15.57,86.3-15.83c12.51-0.26,32.94-25.02,13.28-43.4c-19.66-18.38-65.62-62.55-69.96-76.6s2.81-21.7,12.77-26.04
	c9.96-4.34,3.57-23.74-20.94-42.89c-24.51-19.15-36.26-46.72-33.7-48.51s18.64-10.21,15.32-19.4c-3.32-9.19-64.09-91.91-66.38-97.53
	c0,0-13.79-1.28-19.4-4.6c-5.62-3.32-11.74-7.15-16.85-7.15S283.85,242.43,283.85,242.43z"/>
<path class="st1" d="M292.53,170.94c0,0,3.57,0.51,9.7-8.68c5.4-8.11,13.79-18.99,28.83-7.44c3.41,2.62,5.88,6.23,7.38,10.26
	c1.39,3.74,4.75,8.66,12.81,9.43c10.29,0.99,18.59,7.81,17.64,19.38c-0.43,5.22-2.93,9.99-6.53,13.8
	c-2.62,2.77-5.71,8.03-4.47,16.87c2.04,14.55-8.94,21.7-18.38,17.36c-9.45-4.34-15.57-13.02-21.96-9.19s-27.06,12.77-30.13,9.7
	c-3.06-3.06-6.64-17.62-5.62-25.02c1.02-7.4-13.79-14.55-14.81-17.87C265.98,196.21,263.17,167.87,292.53,170.94z"/>
</svg>
