<svg xmlns="http://www.w3.org/2000/svg" xmlns:xlink="http://www.w3.org/1999/xlink" viewBox="0 0 814.07 404.86"><defs><style>.a,.aj{fill:none;}.b{fill:#8c8e8a;}.c{fill:#7e7f7b;}.d{fill:#0a1118;}.e{fill:#6a7f91;}.f{fill:#4c586a;}.g{fill:#060708;}.h{fill:#3d464b;}.i{fill:#6b7a93;}.j{fill:#52636c;}.k{fill:#515553;}.l{fill:#c0c9cb;}.m{fill:#4a5454;}.n{fill:#9da2a6;}.o{fill:#474e4e;}.p{fill:#5d5b5c;}.q{fill:#0c0e0e;}.r{fill:#878b8f;}.s{fill:#4f514e;}.t{fill:#777776;}.u{fill:#727272;}.v{fill:#6a6d66;}.w{fill:#898c8c;}.x{fill:#63655e;}.y{fill:#949590;}.z{fill:#5c5f5a;}.aa{fill:#919694;}.ab{fill:#616864;}.ac{fill:#6c6e69;}.ad{fill:#878c89;}.ae{fill:#5d6165;}.af{fill:#2b3c4e;}.ag{clip-path:url(#a);}.ah{fill:#083752;}.ai{fill:#767976;}.aj{stroke:#040506;stroke-miterlimit:10;}.ak{fill:#040506;}.al{fill:#909bac;}.am{fill:#fff;}.an{fill:#e30613;}.ao{fill:#b2b2b2;}.ap{fill-rule:evenodd;}</style><clipPath id="a"><rect class="a" x="619.27" y="105.85" width="194.8" height="299.01"/></clipPath></defs><title>house-1</title><polygon class="b" points="21.7 188.84 409.28 117.86 404.04 392.84 12.39 362.21 21.7 188.84"/><polygon class="c" points="409.02 113.82 508.6 155.23 581.11 146.55 602.04 158.29 591.32 157.78 580.98 156.38 514.21 163.91 514.21 170.16 425.87 181.27 426.39 293.1 634.9 289.78 727.15 308.93 727.15 328.33 689.79 390.89 687.75 312.33 633.7 305.35 633.7 394.21 425.36 387.82 403.41 389.61 409.02 113.82"/><path class="d" d="M577.87,17.52S618,90.29,634,100.07h-3.91L578.39,39.13Z"/><polygon class="e" points="578.39 39.14 581.11 148.63 604.09 159.31 631.15 156.08 630.98 101.27 578.39 39.14"/><polyline class="b" points="632.49 171.95 637.09 171.44 638.36 281.76 635.24 281.1 632.58 172.31"/><polygon class="b" points="637.11 171.4 784.34 261.95 784.17 301.78 726.98 301.78 638.3 281.69 637.11 171.4"/><polyline class="d" points="581.11 148.63 604.09 159.31 581.11 162.13 581.11 148.63"/><polygon class="f" points="429.45 195.55 632.68 172.46 634.73 280.82 430.47 284.23 429.45 195.55"/><polygon class="g" points="272.85 284.59 377.87 282.38 378.3 377.69 271.66 371.91 272.85 284.59"/><polygon class="g" points="172.49 287.31 250.34 287.01 247.28 369.82 168.32 364.76 172.49 287.31"/><polygon class="g" points="92.77 289.01 150 287.82 146.9 363.06 87.15 359.48 92.77 289.01"/><polygon class="g" points="29.24 290.38 72.81 290.16 67.66 357.65 24 353.61 29.24 290.38"/><polygon class="h" points="276.98 167.14 384.04 149.61 384.56 191.82 276.81 206.97 276.98 167.14"/><polygon class="h" points="250.28 171.25 177.07 182.74 174.81 220.59 249.36 210.72 250.28 171.25"/><polygon class="h" points="98.13 195.06 156.45 186.38 156.17 221.44 95.83 227.48 98.13 195.06"/><polygon class="h" points="34.73 205.61 80.11 198.57 78.47 231.14 32.68 234.55 34.73 205.61"/><polygon class="i" points="476.49 41.29 578.04 16.72 581.11 148.63 507.41 157.57 409.36 113.99 24 184.46 24.13 129.18 408.19 23.35 501.83 75.69 501.96 69.82 505.6 69.38 506.11 64.14 510.9 60.25 476.49 41.29"/><polygon class="j" points="633.96 305.44 681.36 311.48 681.36 388.42 633.36 394.21 633.96 305.44"/><polygon class="k" points="688 312.42 681.36 311.48 681.36 388.42 690.13 391.06 688 312.42"/><polygon class="l" points="426.04 284.93 634.73 280.82 634.73 290.04 425.7 293.1 426.04 284.93"/><polygon class="m" points="634.73 280.82 727.32 301.61 727.32 309.1 634.73 290.04 634.73 280.82"/><polygon class="n" points="425.87 195.82 631.09 172.33 631.09 155.99 425.11 181.27 425.87 195.82"/><path class="o" d="M476.6,41.61,577.79,17.1s34.21,64.6,55.91,83l11.49-2.55S599.36,50.81,589.28,0L459.75,32.77Z"/><polygon class="p" points="23.75 122.01 24.01 129.35 408.6 23.52 408.39 15.52 23.75 122.01"/><polygon class="q" points="24.02 122.04 0 122.55 408.08 3.31 408.34 15.82 24.02 122.04"/><polygon class="q" points="408 3.4 516.43 59.99 508.56 63.82 508.9 71.65 408.26 15.91 408 3.4"/><polygon class="r" points="408.34 15.82 505.7 69.78 502.13 69.78 502.22 75.92 408.53 23.73 408.34 15.82"/><polygon class="s" points="269.45 285.52 387.19 282.55 387.19 277.44 269.58 280.67 269.45 285.52"/><polygon class="s" points="169.49 288.08 252 286.88 252.15 281.69 169.66 282.33 169.49 288.08"/><polygon class="s" points="89.45 289.61 151.43 287.81 151.59 282.62 89.83 283.95 89.45 289.61"/><polygon class="s" points="15.53 290.63 74.96 290.2 75.41 284.89 15.7 285.65 15.53 290.63"/><polygon class="t" points="507.56 171.15 507.41 157.57 581.11 148.63 581.11 162.13 507.56 171.15"/><polygon class="u" points="22.13 182.67 409.7 111.69 409.53 145.99 20.17 208.12 22.13 182.67"/><polygon class="v" points="263.41 148.25 275.94 135.82 267.92 378.89 258.98 386.04 263.41 148.25"/><polygon class="w" points="275.62 135.82 262.28 138.38 255.7 146.61 248 385.52 259.07 385.86 268.53 145.97 275.62 135.82"/><polygon class="x" points="174.9 154.55 166.56 166.38 156.94 377.61 165.19 370.89 174.9 154.55"/><polygon class="y" points="167.49 165.44 174.73 154.59 160.39 157.18 154.98 164.93 148.09 376.84 157.02 377.61 167.49 165.44"/><polygon class="z" points="91.11 176.08 76.34 370.21 83.62 364.33 95.41 168.97 91.11 176.08"/><polygon class="aa" points="95.24 169.14 85.47 170.67 81.45 176.16 68.6 370.21 76.34 370.33 91.32 175.86 95.24 169.14"/><polygon class="ab" points="425.36 292.84 406.34 292.97 405.7 389.61 425.11 387.69 425.36 292.84"/><polygon class="ac" points="425.36 292.84 634.98 290.21 633.58 393.82 425.11 387.69 425.36 292.84"/><polygon class="ad" points="20.04 207.76 35.17 205.91 32.49 234.25 18.51 239.99 20.04 207.76"/><polygon class="ae" points="25.6 285.5 29.24 290.38 24 353.61 18.56 361.35 25.6 285.5"/><polygon class="af" points="75.04 114.85 75.79 172.42 79.43 171.64 79.68 144.04 86.65 142.89 86.54 170.36 90.73 169.81 90.37 110.92 86.43 111.87 86.83 139.03 79.61 140.08 78.79 113.94 75.04 114.85"/><g class="ag"><path class="ah" d="M738.17,105.85s-6.35,19.18,8.91,38.9c0,0,5.81,3.38-2.7,2.43s6.35,16.48,18.1,20c0,0-9.72-.14-13.23-1.35,0,0-1.22,4.46,4.32,6.21,0,0-1.08,2.57-9.72-2.43,0,0,4.73,11.61,12.42,14.32a26.71,26.71,0,0,1-14.59-3.78s-8,7.16,31.6,26.2a25.56,25.56,0,0,1-12.16-2.43,9.24,9.24,0,0,0,4.86,4.86,44.8,44.8,0,0,1-9.45-4.05l-5.67-3.11s2.16,5.13,3.78,5.81-5.13-2.7-7-5.13l-1.89-2.43a4.73,4.73,0,0,0,1.62,5.94c3.38,2.3-3.24-1.89-6.75-4.59s-1.35,3.92,5.13,8.91c0,0-1.35,3.24-4.32,1.62,0,0,1.35,11.75,23.23,14,0,0,1.21,2.43-12.43,1.35,0,0,17.15,11.21,35.65,11.35,0,0-1.89,5.4-11.88,4.32,0,0,10.67,8.37,23.5,6.75,0,0,2,6.08-15.94,1.35,0,0,14.58,8.78,16.75,17,0,0-16.34-15.4-20-15.94,0,0,1.08,5.67,4.05,7.83,0,0-4.46-3.51-10-8.37s-4.86,1.89-4.86,1.89-7.56-5.54-9.18-3.78,17,16.75,17,16.75-7.56-1.08-9.46-2.43,2.16,4.59,2.16,4.59S755,252,753.28,251.72s3.11,9.59,4.05,10.8-7.29-9.18-8.64-6.21,30.39,30.93,48.35,31.06c0,0-4.19,4.32-8.37,4.05a8.57,8.57,0,0,0,.27,10.26S778,287.9,773.27,285.2s-6.08,3.65-4,6.48,4.59,6.48,4.59,6.48-5.13-7.43-7.56-7.56-2.3,2.57-1.62,5.13-10.13-3.78-9.72-9.18c0,0,2.84,13.1,9.72,16.75l-6.75-2.16a8.83,8.83,0,0,0,1.62,5.13c1.76,2.43-6.08-3.65-7.83-7.83s-.81,4.32-.81,4.32-5.4-4.46-8.37-4.32,22.69,25.39,61,20.8c0,0,9.05-.67,10.53-.81,0,0-7.56,7.43-8.37,7.56s-1.08,2.16-1.08,2.16a2.72,2.72,0,0,0-3.78,1.62c-1.08,2.84-3,6.48,0,7.29s-2.16-2.56-5.4,1.35-4.19,8.1-7,5.4-5.4-13-7.56-11.35a5.83,5.83,0,0,0-2.16,4.32l-14.05-10.53s1.62,18.37,14.32,23.5c0,0-6.75-.54-8.91-1.62s.81,4.59.81,4.59-5.27-12-9.45-10.81-3.51,13.37,3,15.4,15.67,9.59,33.22,12.42l10,3.24s-18.91.41-23.77,0-6.35.27-1.35,5.94,7.7,8.24,10.53,9.72c0,0-11.48-1.62-18.64-6.75l-6.48-5.13s-7.56-1.49-6.75,0,18.91,19.31,25.12,20.26l6.21.95s-13.77,3.78-20.53-3.38l-6.75-7.16s1.21,3.24.27,8.78-11.62,8.64-11.62,8.64L668,387.55s-.14-8.78-5.13-8.37-10.8,6.21-10.8,6.21-9.45-2.16-12.7-1.08,5-3.24,9.45-7.56-.68-3.24-5.67-2.16l-5,1.08s13.51-11.48,12.29-11.88-15.4,6.08-24.85,1.62-5.4-2.43-5.4-2.43,38.09-1.89,41.6-4.86,38.49-2.3,45.38-19.45c0,0-1.35-6.35-3.24-6.21S692,333,692,333s5.67-3.78,2.16-3.78-7.16,1.62-8.64,1.89,4.59-3.65,5.67-4.32-6.48.67-14.05,3.51a22.53,22.53,0,0,1-13.78.81s11.21-3,13.78-5.94-5-2.7-8.91-1.35,9.45-3.11,15.67-6.48-4.59-1.62-4.59-1.62l-5.94.27s39-12.56,43.49-19.72-6.21,1.62-6.21,1.62,10.4-13.1,6.48-13-6.75,5.54-9.45,6.75-5.67,1.21-7.83,1.89S715,277.35,710.67,278.7s-10.94,6.21-13,6.75-1.35-6.62-4.32-5.67a19.14,19.14,0,0,0-5.67,3.24s5.13-7.16,9.72-8.1-10.8-2.84-14.58-2.43,35.93-10.94,39.71-18.91c0,0-1.89-3.24-7.83-.27s1.89-5.67,1.89-5.67a38.21,38.21,0,0,1-13.77,7.56c-8.24,2.43-9.45.27-9.45.27s10-4.73,10.53-9.18l.54-4.46-10.53,9.86,1.08-6.75-4.86,5.4s1.08-12.7,20-24.58,20-14,20-14-8,0-9.45,1.89,4.86-7.56,7.83-10.26-5.54-.27-7.29,1.62.54-5.94.54-5.94-22.28,14-23,11.35,5.67-3.38,8.1-7.56-1.75-1.62-9.45,0,19.45-12,29.71-20.53-7.56,0-7.56,0,6.89-10.4,6.21-11.35-5.81.14-10,.54-1.35-3.51.27-4.05-6.21,1.35-6.21,1.35,13.23-6.48,16.21-11.07,1.62-7.56,1.62-7.56H721.5s10.67-10.94,11.07-15.94-1-27.81,5.6-28.35"/></g><polygon class="ae" points="178.34 282.05 181.98 286.92 177.07 365.1 172.34 375.69 178.34 282.05"/><polygon class="ai" points="88.31 283.97 97.69 283.83 91.48 367.01 80.59 366.46 88.31 283.97"/><polygon class="ae" points="97.53 283.84 101.21 289.24 96.07 359.99 91.47 367.65 97.53 283.84"/><polygon class="ai" points="168.96 282.3 178.34 282.17 172.47 374.93 161.49 374.16 168.96 282.3"/><polygon class="ai" points="271.09 280.4 280.26 280.33 274.9 381.69 264.94 381.1 271.09 280.4"/><polygon class="ae" points="280.17 280.59 284.09 285.1 278.81 371.91 274.98 382.01 280.17 280.59"/><polygon class="aj" points="634.92 280.72 559.92 282.29 558.47 180.84 632.51 172.25 634.92 280.72"/><polygon class="aj" points="560.43 282.38 489.62 283.31 488.6 188.76 558.81 180.67 560.43 282.38"/><polygon class="aj" points="489.64 283.21 426.26 284.23 426.45 196.01 489 188.61 489.64 283.21"/><polygon class="ak" points="430.66 284.35 426.26 284.42 426.26 196.46 430.21 195.57 430.66 284.35"/><polygon class="al" points="303.96 51.65 305.36 130.89 356.77 121.52 355.62 37.23 303.96 51.65"/><polygon class="al" points="195.07 82.04 196.13 150.93 245.79 141.61 244.64 67.91 195.07 82.04"/><polygon class="al" points="115.66 103.97 116.67 165.1 157.96 157.69 157.37 92.35 115.66 103.97"/><polygon class="al" points="31.6 126.51 32.54 180.25 71.24 173.74 70.69 116.3 31.6 126.51"/><polygon class="af" points="258.73 63.93 259.53 139.08 263.36 138.1 263.78 102.03 271.39 100.53 271.19 136.4 275.83 135.67 275.36 59.25 271.11 60.61 271.58 95.5 263.7 96.86 262.81 62.74 258.73 63.93"/><polygon class="af" points="242.81 68.16 247.32 67.06 247.79 141.44 243.75 142.29 242.81 68.16"/><polygon class="af" points="353.62 37.78 358.3 36.42 359.92 120.59 354.81 121.61 353.62 37.78"/><polygon class="af" points="163.94 90.48 164.74 156.5 168.67 155.61 168.93 123.95 176.45 122.64 176.33 154.14 180.84 153.51 180.45 85.97 176.2 87.06 176.64 118.21 168.86 119.42 167.98 89.44 163.94 90.48"/><polygon class="af" points="390.23 28.62 391.03 115.82 395.29 114.69 395.75 73.12 404.21 71.4 403.99 112.73 409.15 111.9 408.61 23.64 403.89 24.92 404.42 65.6 395.67 67.17 394.76 27.34 390.23 28.62"/><path d="M198.77,248.6a2.18,2.18,0,0,0,1.8,1.23,2.29,2.29,0,0,0,2-1.31A5.06,5.06,0,0,0,203,246a3.8,3.8,0,0,0-1-3.1,1.94,1.94,0,0,0-1.29-.49,1.88,1.88,0,0,0-1.27.46c-1.25,1-1.13,3.1-1.13,3.37a5.31,5.31,0,0,0,.42,2.33"/><path d="M198.6,236.72v5c1.17-1.1,2-1.88,3.72-1.87a4.53,4.53,0,0,1,2.22.57,5.94,5.94,0,0,1,2.89,5.57,8,8,0,0,1-1.08,4.15,5.07,5.07,0,0,1-4.21,2.26,4.65,4.65,0,0,1-1.27-.2,4.92,4.92,0,0,1-2.44-1.81l-.1,1.71-4.32,0c.1-2,.18-4,.18-6,0-1.42,0-2.83,0-4.25,0-1.73,0-3.45,0-5.17l-16.56,0-.07,33,33,.07.07-33-12,0"/><path class="am" d="M199.46,242.89a1.9,1.9,0,0,1,1.27-.46,1.94,1.94,0,0,1,1.29.49,3.77,3.77,0,0,1,1,3.1,4.84,4.84,0,0,1-.45,2.49,2.24,2.24,0,0,1-2,1.31,2.16,2.16,0,0,1-1.8-1.23,5.69,5.69,0,0,1-.43-2.35c0-.25-.11-2.35,1.14-3.35m-5.27-1c0,1.42,0,2.83,0,4.25,0,2-.08,4-.18,6l4.32,0,.1-1.71a4.92,4.92,0,0,0,2.44,1.81,4.65,4.65,0,0,0,1.27.2,5.12,5.12,0,0,0,4.21-2.26,8,8,0,0,0,1.08-4.15c0-3.32-1.72-4.94-2.89-5.57a4.64,4.64,0,0,0-2.22-.57c-1.69,0-2.54.78-3.72,1.87v-5h-4.41c0,1.72,0,3.44,0,5.17Z"/><path class="an" d="M210,262.69c-.23-.68-.47-1.35-.67-2.06-.44-1.29-.79-2.62-1.17-3.94h-5.93c-.62,1.79-1.27,3.61-1.83,5.43-.47,1.5-.89,3-1.3,4.55a73.61,73.61,0,0,0-2.68-10h-5.73l4.57,13H202L203.4,266a31.81,31.81,0,0,0,1.45-5.52c.2,1.12.44,2.2.73,3.32s.61,2,.93,3,.64,2,1,3h3.08v-5.43c-.16-.58-.31-1-.51-1.6"/><path class="ao" d="M185.35,250.72l-2.58-.72c-1.25-.34-2-.54-2-1.51s.86-1.42,2-1.42a1.77,1.77,0,0,1,2,1.71h3.84c-.11-2.87-2.49-4.24-5.45-4.25-2.59,0-4.62.82-5.61,2.25v4.46a5.34,5.34,0,0,0,3,1.75l2.61.72c1.65.46,2,1,2,1.62,0,.85-.71,1.7-2.22,1.7a2.07,2.07,0,0,1-2.38-2h-3v2.74l.07.08a6.44,6.44,0,0,0,4.91,1.77c4.46,0,6.6-2.46,6.6-4.93,0-1.95-1.21-3.28-3.82-4"/><polygon class="ap" points="213.9 236.75 246.87 236.83 246.79 269.79 213.83 269.72 213.9 236.75"/><path class="am" d="M215.56,240.58v-.21a1.28,1.28,0,0,0,0-.19c0-.07,0-.13,0-.19h.91l0,.49.1-.15.19-.19a1.27,1.27,0,0,1,.31-.16,1.42,1.42,0,0,1,.45-.07,1.27,1.27,0,0,1,.41.06,1,1,0,0,1,.29.16.89.89,0,0,1,.19.2,1.18,1.18,0,0,1,.1.19.83.83,0,0,1,0,.15l0,.18a2,2,0,0,1,0,.26v2.13h-1v-2a1.15,1.15,0,0,0,0-.19.42.42,0,0,0,0-.16.48.48,0,0,0-.16-.19.45.45,0,0,0-.3-.08.62.62,0,0,0-.49.25.49.49,0,0,0-.08.19,1.23,1.23,0,0,0,0,.31v1.89h-.95v-2.67Z"/><path class="am" d="M221.8,241.28a1.36,1.36,0,0,0,0-.18,1.05,1.05,0,0,0-.06-.24.56.56,0,0,0-.17-.21.51.51,0,0,0-.32-.09.6.6,0,0,0-.27.06.58.58,0,0,0-.19.16.61.61,0,0,0-.11.23,1.28,1.28,0,0,0,0,.27Zm-1.2.59a1.94,1.94,0,0,0,0,.22,1,1,0,0,0,.07.29.76.76,0,0,0,.19.25.59.59,0,0,0,.38.11.69.69,0,0,0,.34-.09.58.58,0,0,0,.23-.36h.86a.93.93,0,0,1,0,.14,1.36,1.36,0,0,1,0,.17,1.07,1.07,0,0,1-.09.19.74.74,0,0,1-.16.2,1.13,1.13,0,0,1-.48.28,2,2,0,0,1-.66.09H221a1.59,1.59,0,0,1-.3-.06,2,2,0,0,1-.31-.12.94.94,0,0,1-.28-.21,1.27,1.27,0,0,1-.32-.55,2.26,2.26,0,0,1-.09-.71,2.93,2.93,0,0,1,0-.41,1.89,1.89,0,0,1,.1-.41,1.58,1.58,0,0,1,.21-.38,1.3,1.3,0,0,1,.34-.32,1.74,1.74,0,0,1,.41-.2,1.59,1.59,0,0,1,.5-.07,1.53,1.53,0,0,1,.36,0,1.74,1.74,0,0,1,.36.13,1.46,1.46,0,0,1,.33.24,1.44,1.44,0,0,1,.26.37,1.1,1.1,0,0,1,.12.33c0,.11.05.22.06.32s0,.2,0,.29a1.77,1.77,0,0,1,0,.24Z"/><path class="am" d="M224.7,240V242a1.85,1.85,0,0,0,0,.23.59.59,0,0,0,0,.23.43.43,0,0,0,.15.18.5.5,0,0,0,.29.07.67.67,0,0,0,.35-.08.49.49,0,0,0,.18-.22,1,1,0,0,0,.07-.32c0-.12,0-.25,0-.39V240h1v2.13c0,.17,0,.31,0,.42a1.56,1.56,0,0,0,0,.24v.2c0,.05,0,.09,0,.12a.74.74,0,0,0,0,.12h-.92l0-.43-.11.14a1,1,0,0,1-.18.17.92.92,0,0,1-.28.14,1.14,1.14,0,0,1-.39.06,1.21,1.21,0,0,1-.58-.13,1.14,1.14,0,0,1-.39-.31.78.78,0,0,1-.12-.22,1.29,1.29,0,0,1-.06-.25,2,2,0,0,1,0-.23V240Z"/><path class="am" d="M230,241.29a1.36,1.36,0,0,0,0-.18,1.05,1.05,0,0,0-.06-.24.56.56,0,0,0-.17-.21.51.51,0,0,0-.32-.09.6.6,0,0,0-.27.06.58.58,0,0,0-.19.16.61.61,0,0,0-.11.23,1.28,1.28,0,0,0,0,.27Zm-1.2.6a1.94,1.94,0,0,0,0,.22,1,1,0,0,0,.07.29.76.76,0,0,0,.19.25.59.59,0,0,0,.38.11.69.69,0,0,0,.34-.09.58.58,0,0,0,.23-.36h.86a.93.93,0,0,1,0,.14,1.36,1.36,0,0,1,0,.17,1.07,1.07,0,0,1-.09.19.74.74,0,0,1-.16.2,1.13,1.13,0,0,1-.48.28,2,2,0,0,1-.66.09h-.25a1.59,1.59,0,0,1-.3-.06,2,2,0,0,1-.31-.12.94.94,0,0,1-.28-.21,1.27,1.27,0,0,1-.32-.55,2.26,2.26,0,0,1-.09-.71,2.93,2.93,0,0,1,0-.41,1.89,1.89,0,0,1,.1-.41,1.58,1.58,0,0,1,.21-.38,1.3,1.3,0,0,1,.34-.32,1.74,1.74,0,0,1,.41-.2,1.59,1.59,0,0,1,.5-.07,1.53,1.53,0,0,1,.36,0,1.74,1.74,0,0,1,.36.13,1.46,1.46,0,0,1,.33.24,1.44,1.44,0,0,1,.26.37,1.1,1.1,0,0,1,.12.33c0,.11.05.22.06.32s0,.2,0,.29a1.77,1.77,0,0,1,0,.24Z"/><path class="am" d="M215.55,247.35c0-.1,0-.2,0-.3s0-.2,0-.3h.91l0,.42.11-.13a.77.77,0,0,1,.19-.16,1,1,0,0,1,.29-.13,1.22,1.22,0,0,1,.41-.06,1.48,1.48,0,0,1,.46.07,1.39,1.39,0,0,1,.3.17.76.76,0,0,1,.17.2.78.78,0,0,1,.08.16,1.09,1.09,0,0,1,.23-.31.91.91,0,0,1,.27-.18,1.43,1.43,0,0,1,.27-.09l.26,0a1.33,1.33,0,0,1,.42.06,1,1,0,0,1,.29.15.74.74,0,0,1,.18.17,1.06,1.06,0,0,1,.09.13,1.6,1.6,0,0,1,.1.23,1.84,1.84,0,0,1,0,.25,2.11,2.11,0,0,1,0,.25v2h-1v-1.9a1.14,1.14,0,0,0,0-.26.61.61,0,0,0-.07-.24.44.44,0,0,0-.16-.17.6.6,0,0,0-.29-.06.54.54,0,0,0-.33.09.58.58,0,0,0-.18.23,1.07,1.07,0,0,0-.07.33c0,.12,0,.24,0,.36V250h-.95v-1.92a1.77,1.77,0,0,0,0-.22.86.86,0,0,0-.06-.23.56.56,0,0,0-.16-.19.51.51,0,0,0-.3-.08.7.7,0,0,0-.35.08.57.57,0,0,0-.18.2.53.53,0,0,0-.06.24,1.62,1.62,0,0,0,0,.21V250h-1v-2.61Z"/><path class="am" d="M223.92,248a1.36,1.36,0,0,0,0-.18,1.05,1.05,0,0,0-.06-.24.48.48,0,0,0-.17-.21.51.51,0,0,0-.32-.09.6.6,0,0,0-.27.06.58.58,0,0,0-.19.16.61.61,0,0,0-.11.23,1.28,1.28,0,0,0,0,.27Zm-1.2.6a1.94,1.94,0,0,0,0,.22,1,1,0,0,0,.07.29.76.76,0,0,0,.19.25.59.59,0,0,0,.38.11.69.69,0,0,0,.34-.09.58.58,0,0,0,.23-.36h.86a.93.93,0,0,1,0,.14,1.36,1.36,0,0,1,0,.17,1.07,1.07,0,0,1-.09.19.74.74,0,0,1-.16.2,1.13,1.13,0,0,1-.48.28,2,2,0,0,1-.66.09h-.25a1.59,1.59,0,0,1-.3-.06,2,2,0,0,1-.31-.12.94.94,0,0,1-.28-.21,1.27,1.27,0,0,1-.32-.55,2.26,2.26,0,0,1-.09-.71,2.93,2.93,0,0,1,0-.41,1.89,1.89,0,0,1,.1-.41,1.58,1.58,0,0,1,.21-.38,1.3,1.3,0,0,1,.34-.32,1.74,1.74,0,0,1,.41-.2,1.59,1.59,0,0,1,.5-.07,1.53,1.53,0,0,1,.36,0,1.41,1.41,0,0,1,.69.37,1.44,1.44,0,0,1,.26.37,1.1,1.1,0,0,1,.12.33c0,.11.05.22.06.32s0,.2,0,.29a1.77,1.77,0,0,1,0,.24Z"/><path class="am" d="M226.64,248.43a2.38,2.38,0,0,0,0,.39,1,1,0,0,0,.11.32.61.61,0,0,0,.2.22.48.48,0,0,0,.3.08.61.61,0,0,0,.36-.11.66.66,0,0,0,.24-.26,1.13,1.13,0,0,0,.13-.42,2.31,2.31,0,0,0,0-.34,1.18,1.18,0,0,0-.19-.73.61.61,0,0,0-.51-.25.58.58,0,0,0-.38.12.81.81,0,0,0-.21.3,1.12,1.12,0,0,0-.09.36c0,.14,0,.24,0,.32Zm1.39-3H229v4.09a2.71,2.71,0,0,0,0,.29,1.3,1.3,0,0,0,0,.23h-.95l0-.47a.94.94,0,0,1-.12.18.65.65,0,0,1-.21.18.92.92,0,0,1-.35.14,1,1,0,0,1-.28,0,1.26,1.26,0,0,1-1-.42,1.77,1.77,0,0,1-.36-1.18,2.27,2.27,0,0,1,.11-.72,1.74,1.74,0,0,1,.29-.54,1.17,1.17,0,0,1,.45-.34,1.37,1.37,0,0,1,.58-.12,1,1,0,0,1,.37.06,1.69,1.69,0,0,1,.27.13l.17.14.1.12v-1.79Z"/><path class="am" d="M230.17,246.77h1V250h-1v-3.24Zm0-1.38h1v.83h-1v-.83Z"/><path class="am" d="M234.29,248.05a1.36,1.36,0,0,0,0-.18,1.05,1.05,0,0,0-.06-.24.56.56,0,0,0-.17-.21.51.51,0,0,0-.32-.09.6.6,0,0,0-.27.06.58.58,0,0,0-.19.16.61.61,0,0,0-.11.23,1.28,1.28,0,0,0,0,.27Zm-1.2.59a1.94,1.94,0,0,0,0,.22,1,1,0,0,0,.07.29.76.76,0,0,0,.19.25.59.59,0,0,0,.38.11.69.69,0,0,0,.34-.09.58.58,0,0,0,.23-.36h.86a.93.93,0,0,1,0,.14,1.36,1.36,0,0,1,0,.17,1.07,1.07,0,0,1-.09.19.74.74,0,0,1-.16.2,1.13,1.13,0,0,1-.48.28,2,2,0,0,1-.66.09h-.25a1.59,1.59,0,0,1-.3-.06,2,2,0,0,1-.31-.12.94.94,0,0,1-.28-.21,1.27,1.27,0,0,1-.32-.55,2.26,2.26,0,0,1-.09-.71,2.93,2.93,0,0,1,0-.41,1.89,1.89,0,0,1,.1-.41,1.58,1.58,0,0,1,.21-.38,1.3,1.3,0,0,1,.34-.32,1.74,1.74,0,0,1,.41-.2,1.59,1.59,0,0,1,.5-.07,1.53,1.53,0,0,1,.36,0,1.41,1.41,0,0,1,.69.37,1.44,1.44,0,0,1,.26.37,1.1,1.1,0,0,1,.12.33,2,2,0,0,1,.06.32c0,.1,0,.2,0,.29a1.77,1.77,0,0,1,0,.24Z"/><path class="am" d="M236.27,247.37v-.21a1.28,1.28,0,0,0,0-.19,1.15,1.15,0,0,0,0-.19h.91l0,.49s.06-.09.1-.15a1.69,1.69,0,0,1,.19-.19,1.27,1.27,0,0,1,.31-.16,1.42,1.42,0,0,1,.45-.07,1.27,1.27,0,0,1,.41.06,1,1,0,0,1,.29.16.67.67,0,0,1,.18.2,1.18,1.18,0,0,1,.1.19.83.83,0,0,1,0,.15s0,.11,0,.18a2,2,0,0,1,0,.26V250h-1v-2a1.15,1.15,0,0,0,0-.19.42.42,0,0,0,0-.16.48.48,0,0,0-.16-.19.45.45,0,0,0-.3-.08.62.62,0,0,0-.49.25.49.49,0,0,0-.08.19,1.23,1.23,0,0,0,0,.31V250h-.95l0-2.67Z"/></svg>