<?xml version="1.0" encoding="utf-8"?>
<!-- Generator: Adobe Illustrator 23.0.6, SVG Export Plug-In . SVG Version: 6.00 Build 0)  -->
<svg version="1.1" id="Ebene_1" xmlns="http://www.w3.org/2000/svg" xmlns:xlink="http://www.w3.org/1999/xlink" x="0px" y="0px"
	 viewBox="0 0 234.9 309.1" style="enable-background:new 0 0 234.9 309.1;" xml:space="preserve">
<style type="text/css">
	.st0{fill:#D59F5F;}
	.st1{fill:#755637;}
	.st2{fill:#D99340;}
	.st3{fill:#8A5E37;}
	.st4{fill:#CB8E50;}
	.st5{fill:#F3B96F;}
	.st6{fill:#85644D;}
	.st7{fill:#7B6556;}
</style>
<title>Zeichenfläche 1</title>
<polygon class="st0" points="144.8,155.2 153,309.1 123.7,309.1 123.7,251.3 123.7,243.7 116.3,157.7 "/>
<polygon class="st1" points="109.9,156.9 118.2,214.1 120.2,238.5 117.6,285.5 123.7,291.2 123.7,243.6 116.3,157.2 "/>
<polygon class="st1" points="15.2,158.1 10.1,163.6 79.1,157.2 83.3,158.8 109.9,158.1 231,152.6 234.9,149 "/>
<polygon class="st2" points="10.2,163.6 8.9,79.9 25.1,74.7 15.8,80.4 15.6,158.1 "/>
<polygon class="st3" points="13.7,67.6 8,74.1 24.6,75.3 38.6,67.6 "/>
<polygon class="st4" points="4.3,23.7 0,31.9 8,74.1 13.8,67.4 "/>
<polygon class="st5" points="225.8,0 122.5,7.3 50.6,13.4 20.3,17.7 4.3,23.7 13.8,67.9 37.8,67.9 15.8,79.8 15.2,158.1 234.9,149 
	234.3,101.1 210.9,100.1 231.8,89.7 228.6,59.9 220.8,52.2 227.5,42.1 "/>
<polygon class="st6" points="213.2,99.4 229.8,95.8 231.8,89.7 211.1,99.9 "/>
<polygon class="st7" points="227.5,42.1 224.3,55.7 220.8,52.2 "/>
<polygon class="st1" points="117.6,285.5 117.6,286 117.6,309.1 123.7,309.1 123.7,291.2 "/>
</svg>
