<svg xmlns="http://www.w3.org/2000/svg" viewBox="0 0 202.4 226.6"><defs><style>.cls-1{isolation:isolate;}.cls-2{fill:#630;}.cls-3{fill:#43681e;}.cls-4{fill:#2f6028;}.cls-5{fill:#360;}.cls-6{fill:#4e1f59;opacity:0.34;mix-blend-mode:overlay;}.cls-7{fill:#daf2f1;}</style></defs><title>hindernisse-dunkel</title><g class="cls-1"><g id="Ebene_1" data-name="Ebene 1"><rect class="cls-2" x="95.87" y="115.18" width="12.23" height="111.42"/><rect class="cls-2" x="119" y="98.31" width="8.45" height="64.81" transform="translate(100.89 -47.54) rotate(36.17)"/><rect class="cls-2" x="79.62" y="138.93" width="8.45" height="49.86" transform="translate(259 220.43) rotate(135)"/><circle class="cls-3" cx="44.44" cy="130.71" r="37.84"/><path class="cls-4" d="M63.11,97.9a55.5,55.5,0,0,1-8.7,2.54,37.68,37.68,0,0,1-16.12,67.43,37.68,37.68,0,0,0,24.82-70Z"/><circle class="cls-3" cx="104.12" cy="68.31" r="59.69"/><path class="cls-5" d="M143.84,68.31a59.33,59.33,0,0,1-7.48,29,31.37,31.37,0,0,1,9.82,13.41,59.69,59.69,0,0,0-52-101.21A59.7,59.7,0,0,1,143.84,68.31Z"/><circle class="cls-3" cx="166.72" cy="95.21" r="35.67"/><path class="cls-5" d="M190.47,95.21a35.65,35.65,0,0,1-29.69,35.15,35.65,35.65,0,1,0,0-70.3A35.66,35.66,0,0,1,190.47,95.21Z"/><path class="cls-6" d="M110.88,37.37c33.2.75,50.9,20.59,50.9,14.18C161.78,31.72,136,18,104.12,18S46.47,39.88,46.47,52.81C46.47,59.21,75.66,36.58,110.88,37.37Z"/><path class="cls-7" d="M111.12,30.42c34.37.91,52.69,25.12,52.69,17.3,0-24.21-26.72-40.95-59.69-40.95S44.44,33.48,44.44,49.25C44.44,57.07,74.65,29.45,111.12,30.42Z"/><path class="cls-6" d="M170.27,66.73c13.86.31,21.25,8.6,21.25,5.92,0-8.28-10.78-14-24.07-14s-24.08,9.14-24.08,14.54C143.37,75.85,155.56,66.4,170.27,66.73Z"/><path class="cls-7" d="M170.37,63.83c14.35.38,22,10.49,22,7.22,0-10.11-11.16-17.1-24.92-17.1s-24.93,11.16-24.93,17.74C142.52,75,155.14,63.42,170.37,63.83Z"/><path class="cls-6" d="M45.17,100.17c-.78,0-2.35.18-3.16.2-15.55.41-28.17,12.66-32,13.89a9.11,9.11,0,0,0-.05,1.37c.22,3.83,14.27-10.54,32.18-11.1,1.82,0,3.09.21,3.65-.61S46.08,101.68,45.17,100.17Z"/><path class="cls-7" d="M36.93,88.51c-17.94-1-25.94,14.21-26,22.59,0,4.33,15.81-10.88,34.8-10.23.62,0,1.24.07,1.84.12C46,96.31,44.54,89.46,36.93,88.51Z"/></g></g></svg>