<svg xmlns="http://www.w3.org/2000/svg" viewBox="0 0 530.41 530.41"><path d="M265.2,102.67A162.6,162.6,0,1,0,427.8,265.26,162.58,162.58,0,0,0,265.2,102.67ZM350.88,219.8a3.46,3.46,0,0,1-4.09-2.46l-1.49-30.05a3.57,3.57,0,0,1,3.46-2.69,3.13,3.13,0,0,1,3.34,3l1.64,28.48A3.24,3.24,0,0,1,350.88,219.8Z" fill="#69ffc9" opacity="0.5"/><path d="M297.55,446.64S270.64,210.46,282.73,152.7s41.19-67.35,63.6-51.42c26,22.08-18.92,96.26-76.08,149.18l-67.89,53.73c-57.68,49.31-64.15,66.53-56.62,88.62,8.77,25.7,43.44,31.56,53.15,18.07s.68-156.27.68-156.27l-23,14" fill="none" stroke="#1d1d1b" stroke-linecap="round" stroke-linejoin="round" stroke-width="6.14"/><path d="M251.59,312.67C275.59,335,297,336.33,297,336.33c23.33,2.24,47.39-16.7,61.61-40.29" fill="none" stroke="#1d1d1b" stroke-linecap="round" stroke-miterlimit="10" stroke-width="6.14"/><line x1="195.18" y1="183.05" x2="196.78" y2="211.65" fill="none" stroke="#1d1d1b" stroke-linecap="round" stroke-miterlimit="10" stroke-width="6.14"/></svg>