<svg xmlns="http://www.w3.org/2000/svg" viewBox="0 0 118.62 118.62"><path d="M59.27,13.25A46.83,46.83,0,1,0,106.1,60.08,46.83,46.83,0,0,0,59.27,13.25Zm25,35.41c-1.84.2-2.25-.95-2.25-.95l-.82-11.5s.31-1,1.91-1c1.76,0,1.84,1.14,1.84,1.14l.9,10.91S86.15,48.46,84.3,48.66Z" fill="#69ffc9"/><path d="M68.59,112.32s-7.75-68-4.27-84.66S76.18,8.26,82.64,12.85c7.49,6.36-5.45,27.73-21.91,43L41.17,71.29C24.56,85.5,22.7,90.46,24.87,96.82c2.52,7.4,12.51,9.09,15.3,5.2s.2-45,.2-45l-6.63,4" fill="none" stroke="#000" stroke-linecap="round" stroke-linejoin="round" stroke-width="3.5"/><path d="M55.35,73.74c6.92,6.43,13.09,6.81,13.09,6.81,6.72.65,13.65-4.81,17.75-11.6" fill="none" stroke="#000" stroke-linecap="round" stroke-miterlimit="10" stroke-width="3.5"/><line x1="39.1" y1="36.4" x2="39.57" y2="44.64" fill="none" stroke="#000" stroke-linecap="round" stroke-miterlimit="10" stroke-width="3.5"/></svg>